<?xml version="1.0" encoding="UTF-8"?>
<!DOCTYPE svg PUBLIC "-//W3C//DTD SVG 1.1//EN" "http://www.w3.org/Graphics/SVG/1.1/DTD/svg11.dtd">
<!-- Creator: CorelDRAW 2021 (64-Bit) -->
<svg xmlns="http://www.w3.org/2000/svg" xml:space="preserve" width="136px" height="112px" version="1.1" style="shape-rendering:geometricPrecision; text-rendering:geometricPrecision; image-rendering:optimizeQuality; fill-rule:evenodd; clip-rule:evenodd"
viewBox="0 0 65.39 53.98"
 xmlns:xlink="http://www.w3.org/1999/xlink"
 xmlns:xodm="http://www.corel.com/coreldraw/odm/2003">
 <defs>
  <style type="text/css">
   <![CDATA[
    .fil9 {fill:none}
    .fil8 {fill:black;fill-rule:nonzero}
    .fil7 {fill:#00DF00;fill-rule:nonzero}
    .fil3 {fill:#1E252B;fill-rule:nonzero}
    .fil4 {fill:#333E48;fill-rule:nonzero}
    .fil2 {fill:#A4A9AD;fill-rule:nonzero}
    .fil6 {fill:#BF534F;fill-rule:nonzero}
    .fil1 {fill:#E8F4FF;fill-rule:nonzero}
    .fil0 {fill:#F49D0B;fill-rule:nonzero}
    .fil5 {fill:#F90000;fill-rule:nonzero}
   ]]>
  </style>
 </defs>
 <g id="Capa_x0020_1">
  <metadata id="CorelCorpID_0Corel-Layer"/>
  <g id="_1933005537872">
   <path class="fil0" d="M41.78 28.97c0,1.48 -1.27,2.68 -2.81,2.68l-22.05 0c-1.55,0 -2.81,-1.2 -2.81,-2.68l0 -25.25c0,-1.48 1.26,-2.69 2.81,-2.69l22.05 0c1.54,0 2.81,1.21 2.81,2.69l0 25.25z"/>
   <path class="fil0" d="M50.1 28.97c0,1.48 -1.26,2.68 -2.81,2.68l-22.05 0c-1.54,0 -2.81,-1.2 -2.81,-2.68l0 -25.25c0,-1.48 1.27,-2.69 2.81,-2.69l22.05 0c1.55,0 2.81,1.21 2.81,2.69l0 25.25z"/>
   <rect class="fil1" x="24.91" y="3.61" width="22.71" height="19.56"/>
   <path class="fil2" d="M41.61 6.71c-0.56,0 -1.01,0.44 -1.01,0.97 0,0.53 0.45,0.97 1.01,0.97l6.01 0 0 -1.94 -6.01 0z"/>
   <rect class="fil3" x="36.27" y="5.86" width="3.21" height="5.44"/>
   <rect class="fil4" x="39.47" y="5.86" width="4.27" height="5.44"/>
   <path class="fil2" d="M37.36 6.71l-12.45 0 0 1.94 12.45 0c0.56,0 1.02,-0.44 1.02,-0.97 0,-0.53 -0.46,-0.97 -1.02,-0.97z"/>
   <path class="fil2" d="M38.84 11.31l0 2.18c0,0.62 0.52,1.12 1.17,1.12 0.64,0 1.16,-0.5 1.16,-1.12l0 -2.18 -2.33 0z"/>
   <polygon class="fil5" points="42.01,19.9 42.01,16.63 38,16.63 38,19.9 36.59,19.9 36.59,23.16 43.43,23.16 43.43,19.9 "/>
   <rect class="fil4" x="24.91" y="25.95" width="10.68" height="2.94"/>
   <ellipse class="fil6" cx="41.16" cy="27.42" rx="1.54" ry="1.47"/>
   <ellipse class="fil7" cx="46.09" cy="27.42" rx="1.54" ry="1.47"/>
   <path class="fil8" d="M0.74 47.75l0.24 -2.55c0.2,-2.24 0.4,-4.86 0.6,-7.88 0.01,-0.28 0.07,-0.54 0.18,-0.77 0.1,-0.23 0.22,-0.34 0.36,-0.34 0.12,0 0.21,0.08 0.29,0.26 0.07,0.17 0.11,0.4 0.11,0.67 0,0.22 -0.06,1.09 -0.17,2.61l-0.27 3.47c-0.06,0.78 -0.19,2.15 -0.37,4.09 0.53,-0.01 1.23,-0.33 2.1,-0.95 0.06,-0.03 0.11,-0.05 0.15,-0.05 0.14,0 0.24,0.1 0.3,0.3 0.07,0.2 0.1,0.41 0.1,0.63 0,0.49 -0.1,0.87 -0.29,1.13 -0.2,0.26 -0.58,0.51 -1.16,0.76 -0.58,0.26 -1.07,0.38 -1.47,0.38 -0.47,0 -0.71,-0.44 -0.71,-1.33 0,-0.13 0,-0.27 0.01,-0.43zm6.17 0.73c-0.44,0.49 -0.78,0.73 -0.99,0.73 -0.93,0 -1.39,-1.03 -1.39,-3.09 0,-1.71 0.25,-3.11 0.74,-4.21 0.49,-1.1 1.04,-1.65 1.64,-1.65 0.22,0 0.46,0.15 0.73,0.47 0.27,0.31 0.41,0.66 0.41,1.06 0,0.24 -0.04,0.46 -0.11,0.65 -0.08,0.43 -0.14,1.06 -0.19,1.89 -0.06,0.83 -0.08,1.44 -0.08,1.86 0,0.23 0,0.4 0.02,0.5l0.1 0.8c0.05,0.42 0.08,0.68 0.08,0.78 0,0.21 -0.05,0.43 -0.16,0.67 -0.1,0.24 -0.22,0.36 -0.37,0.36 -0.09,0 -0.24,-0.28 -0.43,-0.82zm0.12 -6.12c-0.07,-0.1 -0.14,-0.16 -0.2,-0.16 -0.33,0 -0.64,0.35 -0.92,1.03 -0.29,0.68 -0.43,1.55 -0.43,2.61 0,0.96 0.17,1.44 0.52,1.44 0.28,0 0.55,-0.22 0.79,-0.67 0.02,-2.05 0.1,-3.47 0.24,-4.25zm5.44 -4.41c0,-0.38 0.06,-0.7 0.19,-0.97 0.13,-0.27 0.27,-0.41 0.42,-0.41 0.13,0 0.24,0.1 0.33,0.3 0.09,0.2 0.13,0.44 0.13,0.72 0,0.37 -0.06,0.69 -0.19,0.97 -0.12,0.28 -0.27,0.42 -0.43,0.42 -0.13,0 -0.24,-0.1 -0.32,-0.3 -0.09,-0.2 -0.13,-0.45 -0.13,-0.73zm-0.35 11.06c-0.12,0 -0.22,-0.08 -0.3,-0.25 -0.07,-0.18 -0.11,-0.39 -0.11,-0.66l0.1 -1.66c0.06,-1.12 0.14,-2.22 0.24,-3.29 0.08,-0.8 0.13,-1.41 0.15,-1.84 0.02,-0.29 0.08,-0.55 0.18,-0.76 0.11,-0.22 0.23,-0.32 0.36,-0.32 0.11,0 0.21,0.08 0.28,0.25 0.08,0.17 0.11,0.38 0.11,0.66 0,0.21 -0.05,0.84 -0.15,1.88 -0.09,1.03 -0.17,2.03 -0.22,3 -0.05,0.96 -0.09,1.61 -0.11,1.93 -0.03,0.33 -0.09,0.59 -0.19,0.78 -0.1,0.19 -0.21,0.28 -0.34,0.28zm2.66 -7.45c0.4,-0.96 0.75,-1.43 1.06,-1.43 0.35,0 0.58,0.32 0.69,0.97 0.3,-0.6 0.65,-0.89 1.05,-0.89 0.54,0 0.81,0.79 0.81,2.38 0,0.36 0,0.83 -0.02,1.4 0,0.1 -0.01,0.92 -0.02,2.46 0,0.83 -0.01,1.44 -0.02,1.84 -0.02,0.39 -0.08,0.68 -0.19,0.88 -0.11,0.19 -0.23,0.29 -0.35,0.29 -0.15,0 -0.25,-0.09 -0.31,-0.28 -0.06,-0.18 -0.09,-0.53 -0.09,-1.06l0.08 -4.32c0,-0.98 -0.05,-1.47 -0.14,-1.47 -0.04,0 -0.17,0.13 -0.39,0.4 -0.22,0.28 -0.36,0.48 -0.43,0.61 -0.04,0.47 -0.06,1.36 -0.08,2.67 -0.03,1.66 -0.07,2.62 -0.11,2.89 -0.04,0.26 -0.11,0.48 -0.2,0.64 -0.1,0.16 -0.2,0.24 -0.31,0.24 -0.12,0 -0.22,-0.09 -0.29,-0.27 -0.08,-0.17 -0.12,-0.38 -0.12,-0.63l0.05 -0.91c0.02,-0.41 0.04,-1.08 0.06,-2.01 0.03,-1.3 0.06,-2.21 0.09,-2.73 0.02,-0.34 0.03,-0.62 0.03,-0.83 -0.3,0.37 -0.63,1.02 -0.98,1.97l-0.27 3.77c-0.02,0.29 -0.07,0.51 -0.18,0.68 -0.1,0.17 -0.22,0.26 -0.37,0.26 -0.24,0 -0.36,-0.34 -0.36,-1.02 0,-0.24 0.01,-0.53 0.04,-0.89l0.19 -3.01c0.05,-0.76 0.08,-1.39 0.11,-1.89 0.02,-0.78 0.1,-1.4 0.22,-1.86 0.13,-0.45 0.26,-0.68 0.41,-0.68 0.12,0 0.22,0.1 0.3,0.3 0.08,0.2 0.12,0.43 0.12,0.69 0,0.07 -0.03,0.35 -0.08,0.84zm4.93 7.52l-0.22 3.31c-0.02,0.32 -0.08,0.58 -0.18,0.79 -0.1,0.21 -0.22,0.32 -0.35,0.32 -0.12,0 -0.22,-0.09 -0.29,-0.26 -0.08,-0.17 -0.11,-0.39 -0.11,-0.65 0,-0.15 0.07,-1.22 0.21,-3.23 0.21,-3.11 0.34,-5.58 0.4,-7.4 0.02,-0.69 0.09,-1.21 0.21,-1.59 0.13,-0.38 0.27,-0.56 0.43,-0.56 0.13,0 0.23,0.1 0.3,0.3 0.07,0.21 0.1,0.45 0.08,0.75l-0.01 0.08c0.32,-0.4 0.64,-0.6 0.94,-0.6 0.77,0 1.15,1.06 1.15,3.17 0,1.87 -0.2,3.29 -0.59,4.27 -0.4,0.98 -0.86,1.47 -1.37,1.47 -0.22,0 -0.42,-0.06 -0.6,-0.17zm0.34 -5.6c-0.04,0.86 -0.1,1.97 -0.18,3.35 0.19,0.15 0.38,0.23 0.58,0.23 0.31,0 0.54,-0.33 0.68,-0.99 0.14,-0.66 0.21,-1.42 0.21,-2.27 0,-0.86 -0.12,-1.29 -0.36,-1.29 -0.28,0 -0.59,0.32 -0.93,0.97zm5.65 -0.59c-0.02,0.31 -0.08,0.59 -0.17,0.86 -0.09,0.26 -0.22,0.39 -0.39,0.39 -0.23,0 -0.35,-0.26 -0.35,-0.78 0,-0.08 0,-0.18 0.01,-0.28l0.03 -0.82c-0.51,0.19 -0.92,0.82 -1.21,1.89l-0.26 4.07c-0.02,0.31 -0.08,0.56 -0.18,0.78 -0.1,0.21 -0.22,0.31 -0.36,0.31 -0.12,0 -0.22,-0.1 -0.28,-0.3 -0.07,-0.21 -0.09,-0.47 -0.07,-0.79l0.35 -5.33 0.08 -1.16c0.03,-0.38 0.06,-0.66 0.09,-0.82 0.04,-0.16 0.09,-0.3 0.17,-0.41 0.08,-0.12 0.17,-0.17 0.27,-0.17 0.25,0 0.38,0.3 0.39,0.92 0.44,-0.72 0.9,-1.07 1.39,-1.07 0.36,0 0.55,0.49 0.55,1.47 0,0.21 -0.01,0.44 -0.03,0.7l-0.03 0.54zm0.95 3.42c0.19,0.57 0.48,0.85 0.86,0.85 0.29,0 0.56,-0.15 0.79,-0.45 0.2,-0.27 0.36,-0.4 0.48,-0.4 0.19,0 0.29,0.21 0.29,0.62 0,0.64 -0.18,1.16 -0.53,1.58 -0.35,0.41 -0.74,0.62 -1.16,0.62 -0.52,0 -0.93,-0.28 -1.22,-0.84 -0.29,-0.57 -0.44,-1.32 -0.44,-2.27 0,-1.33 0.2,-2.62 0.59,-3.88 0.39,-1.25 0.91,-1.88 1.55,-1.88 0.43,0 0.76,0.17 1,0.51 0.23,0.34 0.35,0.82 0.35,1.44 0,0.59 -0.09,1.09 -0.28,1.5 -0.19,0.4 -0.55,0.86 -1.07,1.38l-1.21 1.22zm0.06 -2.07l0.81 -0.78c0.3,-0.31 0.56,-0.62 0.79,-0.94 -0.14,-0.2 -0.33,-0.3 -0.57,-0.3 -0.41,0 -0.76,0.68 -1.03,2.02zm5.29 -2.11c-0.09,-0.03 -0.19,-0.05 -0.28,-0.05 -0.56,0 -0.84,0.19 -0.84,0.56 0,0.22 0.15,0.49 0.43,0.82 0.48,0.59 0.8,1.08 0.96,1.46 0.16,0.39 0.24,0.85 0.24,1.37 0,0.8 -0.16,1.5 -0.48,2.08 -0.32,0.58 -0.76,0.88 -1.31,0.88 -0.32,0 -0.61,-0.14 -0.85,-0.4 -0.25,-0.25 -0.37,-0.61 -0.37,-1.06 0,-0.69 0.15,-1.03 0.46,-1.03 0.1,0 0.24,0.08 0.43,0.24 0.2,0.16 0.34,0.23 0.44,0.23 0.48,0 0.72,-0.24 0.72,-0.72 0,-0.26 -0.13,-0.55 -0.41,-0.86 -0.46,-0.54 -0.78,-0.98 -0.94,-1.32 -0.16,-0.35 -0.23,-0.8 -0.23,-1.36 0,-0.8 0.14,-1.48 0.43,-2.05 0.28,-0.56 0.86,-0.84 1.74,-0.84 0.43,0 0.65,0.32 0.65,0.98 0,0.34 -0.04,0.72 -0.11,1.13 -0.07,0.41 -0.18,0.62 -0.32,0.62 -0.23,0 -0.35,-0.23 -0.36,-0.68zm1.95 -4.18c0,-0.38 0.07,-0.7 0.19,-0.97 0.13,-0.27 0.27,-0.41 0.42,-0.41 0.13,0 0.24,0.1 0.33,0.3 0.09,0.2 0.14,0.44 0.14,0.72 0,0.37 -0.07,0.69 -0.19,0.97 -0.13,0.28 -0.27,0.42 -0.43,0.42 -0.13,0 -0.24,-0.1 -0.33,-0.3 -0.08,-0.2 -0.13,-0.45 -0.13,-0.73zm-0.35 11.06c-0.12,0 -0.22,-0.08 -0.29,-0.25 -0.08,-0.18 -0.11,-0.39 -0.11,-0.66l0.09 -1.66c0.06,-1.12 0.14,-2.22 0.24,-3.29 0.08,-0.8 0.13,-1.41 0.15,-1.84 0.02,-0.29 0.08,-0.55 0.19,-0.76 0.1,-0.22 0.22,-0.32 0.35,-0.32 0.12,0 0.21,0.08 0.29,0.25 0.07,0.17 0.11,0.38 0.11,0.66 0,0.21 -0.05,0.84 -0.15,1.88 -0.1,1.03 -0.18,2.03 -0.23,3 -0.05,0.96 -0.09,1.61 -0.11,1.93 -0.03,0.33 -0.09,0.59 -0.19,0.78 -0.1,0.19 -0.21,0.28 -0.34,0.28zm1.32 -3.11c0,-1.36 0.21,-2.63 0.61,-3.81 0.41,-1.18 0.93,-1.76 1.57,-1.76 0.37,0 0.66,0.3 0.87,0.9 0.21,0.61 0.31,1.41 0.31,2.4 0,1.43 -0.19,2.72 -0.57,3.88 -0.39,1.16 -0.87,1.74 -1.44,1.74 -0.4,0 -0.73,-0.32 -0.97,-0.96 -0.25,-0.63 -0.38,-1.43 -0.38,-2.39zm0.94 -0.33c0,0.46 0.05,0.83 0.14,1.11 0.1,0.28 0.23,0.42 0.41,0.42 0.29,0 0.52,-0.3 0.69,-0.9 0.17,-0.59 0.26,-1.36 0.26,-2.29 0,-0.96 -0.15,-1.44 -0.45,-1.44 -0.3,0 -0.55,0.35 -0.75,1.04 -0.2,0.7 -0.3,1.38 -0.3,2.06zm4.09 -4.33c0.38,-0.8 0.75,-1.2 1.11,-1.2 0.57,0 0.85,0.79 0.85,2.36 0,0.43 -0.02,0.93 -0.06,1.51l-0.04 0.58c-0.05,0.82 -0.08,1.54 -0.08,2.17 0,0.74 -0.01,1.26 -0.03,1.56 -0.01,0.3 -0.07,0.56 -0.17,0.79 -0.1,0.22 -0.22,0.34 -0.36,0.34 -0.26,0 -0.4,-0.32 -0.4,-0.94 0,-1.37 0.02,-2.38 0.05,-3.02 0.04,-0.65 0.09,-1.36 0.17,-2.15 0.03,-0.3 0.05,-0.52 0.05,-0.64 0,-0.27 -0.04,-0.41 -0.12,-0.41 -0.21,0 -0.44,0.31 -0.68,0.92 -0.24,0.61 -0.42,1.23 -0.54,1.87 -0.12,0.64 -0.2,1.45 -0.22,2.43 -0.01,0.47 -0.03,0.8 -0.06,0.98 -0.02,0.18 -0.08,0.36 -0.17,0.52 -0.09,0.17 -0.2,0.25 -0.33,0.25 -0.12,0 -0.21,-0.08 -0.29,-0.24 -0.07,-0.16 -0.11,-0.37 -0.11,-0.63l0.02 -0.88c0.02,-0.6 0.09,-1.54 0.22,-2.85 0.12,-1.2 0.19,-2.03 0.21,-2.49 0.02,-0.52 0.03,-0.91 0.05,-1.18 0.02,-0.27 0.08,-0.51 0.19,-0.71 0.1,-0.2 0.22,-0.3 0.35,-0.3 0.3,0 0.42,0.42 0.39,1.26l0 0.1zm3.06 5.07c0.2,0.57 0.48,0.85 0.86,0.85 0.3,0 0.56,-0.15 0.79,-0.45 0.21,-0.27 0.37,-0.4 0.48,-0.4 0.2,0 0.3,0.21 0.3,0.62 0,0.64 -0.18,1.16 -0.53,1.58 -0.36,0.41 -0.75,0.62 -1.17,0.62 -0.52,0 -0.92,-0.28 -1.21,-0.84 -0.3,-0.57 -0.44,-1.32 -0.44,-2.27 0,-1.33 0.19,-2.62 0.58,-3.88 0.4,-1.25 0.91,-1.88 1.56,-1.88 0.42,0 0.76,0.17 0.99,0.51 0.24,0.34 0.36,0.82 0.36,1.44 0,0.59 -0.1,1.09 -0.28,1.5 -0.19,0.4 -0.55,0.86 -1.08,1.38l-1.21 1.22zm0.06 -2.07l0.82 -0.78c0.29,-0.31 0.55,-0.62 0.78,-0.94 -0.13,-0.2 -0.32,-0.3 -0.56,-0.3 -0.42,0 -0.76,0.68 -1.04,2.02zm5.56 -1.89l-0.27 0c-0.16,0 -0.29,0 -0.4,0.02 -0.01,0.09 -0.02,0.17 -0.03,0.26 -0.01,0.08 -0.02,0.17 -0.03,0.26 -0.17,1.42 -0.26,2.48 -0.26,3.18 0,0.64 0.05,0.96 0.16,0.96 0.11,0 0.22,-0.15 0.33,-0.43 0.12,-0.29 0.22,-0.44 0.32,-0.44 0.09,0 0.18,0.1 0.27,0.28 0.08,0.18 0.13,0.43 0.13,0.74 0,0.53 -0.13,0.98 -0.39,1.36 -0.26,0.38 -0.52,0.57 -0.79,0.57 -0.62,0 -0.93,-0.92 -0.93,-2.75 0,-1 0.11,-2.31 0.33,-3.93 -0.38,-0.05 -0.62,-0.16 -0.7,-0.33 -0.09,-0.17 -0.14,-0.46 -0.14,-0.86 0,-0.33 0.05,-0.6 0.14,-0.81 0.09,-0.2 0.21,-0.3 0.35,-0.3l0.53 0.11 0.08 -1.63c0.01,-0.28 0.07,-0.53 0.16,-0.73 0.09,-0.2 0.2,-0.31 0.33,-0.31 0.27,0 0.4,0.45 0.4,1.36 0,0.16 -0.02,0.58 -0.07,1.26 0.06,-0.01 0.12,-0.03 0.16,-0.05 0.12,-0.04 0.29,-0.01 0.5,0.07 0.21,0.08 0.32,0.41 0.32,0.98 0,0.36 -0.05,0.64 -0.15,0.84 -0.1,0.21 -0.21,0.32 -0.35,0.32zm2.84 6.13c-0.45,0.49 -0.78,0.73 -1,0.73 -0.92,0 -1.38,-1.03 -1.38,-3.09 0,-1.71 0.25,-3.11 0.74,-4.21 0.49,-1.1 1.04,-1.65 1.64,-1.65 0.22,0 0.46,0.15 0.73,0.47 0.27,0.31 0.41,0.66 0.41,1.06 0,0.24 -0.04,0.46 -0.11,0.65 -0.08,0.43 -0.14,1.06 -0.19,1.89 -0.06,0.83 -0.08,1.44 -0.08,1.86 0,0.23 0,0.4 0.02,0.5l0.1 0.8c0.05,0.42 0.08,0.68 0.08,0.78 0,0.21 -0.06,0.43 -0.16,0.67 -0.1,0.24 -0.22,0.36 -0.37,0.36 -0.1,0 -0.24,-0.28 -0.43,-0.82zm0.11 -6.12c-0.06,-0.1 -0.13,-0.16 -0.19,-0.16 -0.33,0 -0.64,0.35 -0.93,1.03 -0.28,0.68 -0.42,1.55 -0.42,2.61 0,0.96 0.17,1.44 0.52,1.44 0.28,0 0.54,-0.22 0.79,-0.67 0.02,-2.05 0.1,-3.47 0.23,-4.25zm7.67 -0.2c0.35,0.53 0.52,1.3 0.52,2.32 0,1.25 -0.2,2.34 -0.61,3.26 -0.4,0.93 -0.88,1.39 -1.42,1.39 -0.35,0 -0.65,-0.15 -0.89,-0.46 -0.25,-0.3 -0.41,-0.66 -0.49,-1.08 -0.08,-0.42 -0.13,-0.74 -0.13,-0.95 0,-0.32 0.06,-0.59 0.17,-0.83 0.11,-0.25 0.24,-0.37 0.38,-0.37 0.14,0 0.24,0.15 0.31,0.43l0.17 0.66c0.04,0.15 0.11,0.27 0.22,0.36 0.1,0.09 0.24,0.14 0.4,0.14 0.22,0 0.43,-0.18 0.63,-0.53 0.19,-0.35 0.29,-0.84 0.29,-1.47 0,-1.09 -0.33,-1.71 -0.99,-1.87 -0.29,-0.07 -0.44,-0.35 -0.44,-0.84 0,-0.3 0.05,-0.56 0.15,-0.77 0.11,-0.2 0.22,-0.34 0.35,-0.41l0.71 -0.36c0.36,-0.28 0.54,-0.73 0.54,-1.35 0,-0.66 -0.24,-0.99 -0.71,-0.99 -0.16,0 -0.37,0.16 -0.62,0.49 -0.22,0.32 -0.37,0.48 -0.45,0.48 -0.12,0 -0.21,-0.1 -0.28,-0.28 -0.08,-0.19 -0.11,-0.4 -0.11,-0.63 0,-0.53 0.2,-1.03 0.6,-1.48 0.41,-0.45 0.71,-0.68 0.91,-0.68 0.49,0 0.86,0.24 1.14,0.72 0.27,0.48 0.41,1.15 0.41,2.02 0,0.61 -0.06,1.2 -0.18,1.77 -0.12,0.56 -0.31,1 -0.58,1.31zm4 -1.59c0.17,-2 0.29,-3.3 0.36,-3.89 0.08,-0.59 0.24,-0.89 0.5,-0.89 0.25,0 0.38,0.29 0.38,0.88 0,0.29 -0.11,1.52 -0.32,3.7 -0.17,1.81 -0.3,3.35 -0.37,4.65 -0.07,1.29 -0.11,2.16 -0.11,2.59 0,0.26 -0.01,0.47 -0.03,0.62 -0.02,0.15 -0.07,0.32 -0.17,0.5 -0.09,0.19 -0.2,0.28 -0.32,0.28 -0.16,0 -0.28,-0.18 -0.34,-0.55 -0.32,0.45 -0.67,0.67 -1.02,0.67 -0.47,0 -0.84,-0.33 -1.11,-0.99 -0.27,-0.67 -0.4,-1.47 -0.4,-2.42 0,-1.41 0.2,-2.71 0.61,-3.89 0.4,-1.18 0.93,-1.77 1.58,-1.77 0.33,0 0.59,0.17 0.76,0.51zm-0.23 2.57c-0.11,-0.67 -0.32,-1.01 -0.65,-1.01 -0.41,0 -0.72,0.34 -0.91,1.03 -0.19,0.69 -0.28,1.38 -0.28,2.08 0,0.52 0.07,0.94 0.22,1.29 0.15,0.34 0.33,0.51 0.55,0.51 0.29,0 0.58,-0.3 0.87,-0.92 0,-0.19 0.07,-1.18 0.2,-2.98z"/>
   <rect class="fil9" width="65.39" height="53.98"/>
  </g>
 </g>
</svg>
